<?xml version="1.0" encoding="utf-8"?>
<!-- Generator: Adobe Illustrator 19.0.0, SVG Export Plug-In . SVG Version: 6.00 Build 0)  -->
<svg version="1.1" id="Layer_1" xmlns="http://www.w3.org/2000/svg" xmlns:xlink="http://www.w3.org/1999/xlink" x="0px" y="0px"
	 width="1400px" height="980px" viewBox="0 0 1400 980" enable-background="new 0 0 1400 980" xml:space="preserve">
<g id="XMLID_480_">
	<g id="XMLID_139_">
		<path id="XMLID_788_" fill="#EF3643" d="M335,248.1c-57.4-9.4-72.5,39.6-72.5,39.6s-15.1-49-72.5-39.6
			c-57.4,9.4-59.4,75.1-12.5,128.3c46.9,53.2,85,78.7,85,78.7s38.1-25.6,85-78.7S392.3,257.5,335,248.1z"/>
	</g>
	<g id="XMLID_483_">
		<path id="XMLID_766_" fill="#FFFFFF" d="M164.7,291.2c-0.5,0-1-0.1-1.5-0.3c-2.3-0.8-3.6-3.4-2.7-5.7c4.7-13.1,15.3-21,31.7-23.7
			c2.4-0.4,4.8,1.3,5.2,3.7c0.4,2.5-1.3,4.8-3.7,5.2c-13.1,2.1-21.2,8-24.7,17.9C168.3,290,166.6,291.2,164.7,291.2z"/>
	</g>
	<g id="XMLID_452_">
		<path id="XMLID_763_" fill="#601823" d="M262.5,459.6c-0.9,0-1.7-0.3-2.5-0.8c-1.6-1.1-39.1-26.5-85.9-79.5
			c-29.1-33-40.9-71.4-30.6-100.3c6.8-19.1,23.1-31.7,45.7-35.4c44.2-7.2,65.1,18.6,73.2,33.3c8.1-14.7,29-40.5,73.2-33.3l0,0
			c22.7,3.7,38.9,16.3,45.7,35.4c10.3,28.8-1.4,67.2-30.6,100.3c-46.8,53-84.3,78.4-85.9,79.5C264.2,459.4,263.4,459.6,262.5,459.6z
			 M204.1,251.4c-4.2,0-8.6,0.4-13.3,1.1c-19.6,3.2-33,13.4-38.7,29.6c-9,25.3,2.3,61.2,28.8,91.3c39.2,44.5,72.5,69.6,81.6,76.2
			c9.2-6.6,42.4-31.8,81.6-76.2c26.6-30.1,37.9-65.9,28.8-91.3c-5.8-16.1-19.2-26.4-38.7-29.6c-22.3-3.6-40.4,1.4-53.8,15
			c-10.1,10.2-13.6,21.4-13.6,21.5c-0.6,1.9-2.3,3.2-4.3,3.2s-3.7-1.3-4.3-3.2C257.7,287.4,245.8,251.4,204.1,251.4z"/>
	</g>
	<g id="XMLID_481_">
		<path id="XMLID_762_" fill="#601823" d="M265.2,401.8c-0.2,0-0.3,0-0.5,0c-1.7-0.2-3.2-1.4-3.7-3l-27.5-80l-22.8,28.4
			c-0.9,1.1-2.1,1.7-3.5,1.7h-48.9v-9h46.8l26.6-33.1c1-1.3,2.7-1.9,4.3-1.6c1.6,0.3,2.9,1.4,3.5,3l27.1,78.8l26.8-42.9
			c0.8-1.3,2.3-2.1,3.8-2.1h68.3v9h-65.8L269,399.7C268.2,401,266.7,401.8,265.2,401.8z"/>
	</g>
</g>
<g id="XMLID_803_">
	<g id="XMLID_499_">
		<g id="XMLID_497_">
			<g id="XMLID_548_">
				<path id="XMLID_5_" fill="#636D7C" d="M611.5,316.8c-3.9-4.6-5.6-10.7-4.6-16.7l3.8-24.2c3.8-24.2-13.2-44.1-37.7-44.1h-64.1
					c-25.7,0-43.4,20.8-39.5,46.1l3.5,22.1c0.9,6-0.8,12-4.6,16.7c-13.6,16.2-21.8,37.1-21.8,59.9c0,51.6,35.1,78.4,93.4,78.4
					c66,0,93.4-26.8,93.4-78.4C633.2,353.9,625.1,333,611.5,316.8z M584.1,276.5l-4.1,25.4c-27.5-4.7-54.3-5-80.3,0l-4.1-25.4
					c-0.8-8.1,5.3-15.2,13.2-15.2h62C578.8,261.3,584.9,268.4,584.1,276.5z"/>
			</g>
			<g id="XMLID_508_">
				<path id="XMLID_676_" fill="#601823" d="M580,306.4c-0.3,0-0.5,0-0.8-0.1c-27.9-4.7-54.3-4.7-78.7,0c-1.2,0.2-2.4,0-3.4-0.7
					c-1-0.7-1.7-1.8-1.9-3l-4.1-25.4c0-0.1,0-0.2,0-0.3c-0.5-5.3,1.2-10.5,4.7-14.4c3.4-3.7,8-5.8,13-5.8h62c5,0,9.6,2.1,13,5.8
					c3.5,3.9,5.2,9.1,4.7,14.4c0,0.1,0,0.2,0,0.3l-4.1,25.4c-0.2,1.2-0.8,2.2-1.8,2.9C581.9,306.1,580.9,306.4,580,306.4z
					 M538.5,293.8c12.3,0,24.9,1,37.7,3l3.4-20.8c0.2-2.7-0.6-5.4-2.4-7.3c-1.7-1.8-3.9-2.8-6.4-2.8h-62c-2.4,0-4.7,1-6.4,2.8
					c-1.8,2-2.6,4.6-2.4,7.3l3.3,20.8C514.7,294.8,526.5,293.8,538.5,293.8z"/>
			</g>
			<g id="XMLID_510_">
				<path id="XMLID_673_" fill="#601823" d="M539.9,459.6c-62.2,0-97.9-30.2-97.9-82.9c0-22.9,8.1-45.2,22.8-62.8
					c3-3.6,4.4-8.4,3.6-13.1l-3.5-22.1c-2.1-13.6,1.3-26.4,9.6-36.2c8.3-9.8,20.5-15.1,34.3-15.1h64.1c13.2,0,24.9,5.2,32.9,14.5
					c8,9.4,11.3,21.7,9.2,34.8l-3.8,24.2c-0.7,4.7,0.6,9.4,3.6,13.1c14.7,17.6,22.8,39.9,22.8,62.8c0,27.9-7.7,48.2-23.5,61.9
					C598,452.8,573.7,459.6,539.9,459.6z M508.9,236.4c-11.1,0-20.8,4.3-27.4,12c-6.6,7.7-9.3,18-7.6,29l3.5,22.1
					c1.1,7.2-0.9,14.6-5.6,20.2c-13.4,15.9-20.7,36.2-20.7,57c0,47.7,31.6,73.9,88.9,73.9c61.5,0,88.9-22.8,88.9-73.9
					c0-20.8-7.4-41.1-20.7-57c-4.7-5.6-6.8-13-5.6-20.2l3.8-24.2c1.6-10.4-0.9-20.2-7.2-27.5c-6.3-7.3-15.5-11.4-26.1-11.4H508.9z"
					/>
			</g>
		</g>
		<g id="XMLID_498_">
			<g id="XMLID_500_">
				<path id="XMLID_6_" fill="#601823" d="M519.1,402.7c4.7,0,7.1-2.2,7.1-6.6v-4c0-7-3.7-10.5-11-10.5v-8.8c3.9,0,6.9-1.1,8.7-3.3
					c1.7-2,2.6-4.8,2.6-8.4v-1.6c0-4.4-2-6.7-5.9-6.7c-2.2,0-3.8,0.8-4.8,2.5c-0.8,1.3-1.1,2.9-1.1,4.9v1.8h-10.1v-1.6
					c0-4.9,1.2-8.8,3.7-11.8c2.8-3.5,6.7-5.2,11.8-5.2c4.8,0,8.7,1.6,11.6,4.9c2.6,2.9,3.9,6.6,3.9,11v2.9c0,4.2-1.3,7.9-3.8,11
					c-1.1,1.3-2.4,2.4-3.8,3.3c3,1.7,5.4,4.3,7.1,7.8c0.9,1.8,1.3,3.9,1.3,6.5v5.4c0,5-1.7,9.2-5.2,12.4c-3.3,3.1-7.3,4.7-11.9,4.7
					c-4.5,0-8.4-1.6-11.5-4.8c-3.2-3.2-4.7-7-4.7-11.5v-1.7l9.8-0.8l0.2,2.4c0.1,1.7,0.8,3.1,1.8,4.2
					C516,402.2,517.4,402.7,519.1,402.7z"/>
			</g>
			<g id="XMLID_502_">
				<path id="XMLID_7_" fill="#601823" d="M556.1,354.6v14.6c1-1.4,2.5-2.6,4.3-3.4c1-0.4,2.1-0.6,3.4-0.6c4.5,0,7.8,1.6,10,4.7
					c1.9,2.7,2.8,6.6,2.8,11.5v14.7c0,5-1.6,9.2-4.8,12.4c-3,3.1-6.9,4.7-11.5,4.7c-4.5,0-8.2-1.6-11.2-4.9
					c-2.9-3.1-4.3-6.9-4.3-11.4v-1.6l9.8-0.8l0.2,2.3c0.3,2.7,1.4,4.5,3.3,5.4c0.6,0.3,1.2,0.4,1.8,0.4c4.2,0,6.3-2.2,6.3-6.6v-16.7
					c0-2-0.7-3.6-2.2-4.9c-0.7-0.6-1.7-0.9-2.9-0.9c-1.8,0-3.2,0.7-4,2.1c-0.7,1.2-1.1,2.5-1.1,3.9v1.8h-10.3v-37.2h30v10.3H556.1z"
					/>
			</g>
		</g>
	</g>
	<path id="XMLID_790_" fill="#FFFFFF" d="M485.1,325.1c-7.4,5.6-11.8,13.3-12.9,22.6c-0.5,4.4,6.5,4.4,6.9,0
		c0.7-6.5,4.2-12.6,9.4-16.6C492.1,328.4,488.7,322.4,485.1,325.1z"/>
</g>
<g id="XMLID_802_">
	<g id="XMLID_629_">
		<g id="XMLID_618_">
			<path id="XMLID_730_" fill="#FFD631" d="M833.8,455.1H733.6c-8.5,0-15.4-6.9-15.4-15.4V295.2c0-3.8,3.1-7,7-7h117.2
				c3.8,0,7,3.1,7,7v144.5C849.2,448.2,842.3,455.1,833.8,455.1z"/>
		</g>
		<g id="XMLID_628_">
			<circle id="XMLID_778_" fill="#636D7C" cx="783.7" cy="364.1" r="44.3"/>
		</g>
		<g id="XMLID_622_">
			<path id="XMLID_731_" fill="#601823" d="M833.8,459.6H733.6c-11,0-19.9-8.9-19.9-19.9V295.2c0-6.3,5.1-11.5,11.5-11.5h117.2
				c6.3,0,11.5,5.1,11.5,11.5v144.5C853.7,450.7,844.8,459.6,833.8,459.6z M725.1,292.8c-1.4,0-2.5,1.1-2.5,2.5v144.5
				c0,6,4.9,10.9,10.9,10.9h100.2c6,0,10.9-4.9,10.9-10.9V295.2c0-1.4-1.1-2.5-2.5-2.5H725.1z"/>
		</g>
		<g id="XMLID_623_">
			<rect id="XMLID_726_" x="743.1" y="272.8" fill="#FFD631" width="81.2" height="15.4"/>
		</g>
		<g id="XMLID_621_">
			<path id="XMLID_727_" fill="#601823" d="M824.3,292.8h-81.2c-2.5,0-4.5-2-4.5-4.5v-15.4c0-2.5,2-4.5,4.5-4.5h81.2
				c2.5,0,4.5,2,4.5,4.5v15.4C828.8,290.8,826.8,292.8,824.3,292.8z M747.6,283.8h72.2v-6.4h-72.2V283.8z"/>
		</g>
		<g id="XMLID_619_">
			<path id="XMLID_575_" fill="#9BCC5E" d="M839.4,272.8H727.9v-23.7c0-4.2,3.4-7.6,7.6-7.6h96.3c4.2,0,7.6,3.4,7.6,7.6V272.8z"/>
		</g>
		<g id="XMLID_620_">
			<path id="XMLID_723_" fill="#601823" d="M839.4,277.3H727.9c-2.5,0-4.5-2-4.5-4.5v-23.7c0-6.7,5.4-12.1,12.1-12.1h96.3
				c6.7,0,12.1,5.4,12.1,12.1v23.7C843.9,275.3,841.9,277.3,839.4,277.3z M732.4,268.3h102.5v-19.2c0-1.7-1.4-3.1-3.1-3.1h-96.3
				c-1.7,0-3.1,1.4-3.1,3.1V268.3z"/>
		</g>
		<g id="XMLID_626_">
			<g id="XMLID_625_">
				<rect id="XMLID_722_" x="779.2" y="339.5" fill="#601823" width="9" height="49.3"/>
			</g>
			<g id="XMLID_624_">
				<rect id="XMLID_721_" x="759.1" y="359.6" fill="#601823" width="49.3" height="9"/>
			</g>
		</g>
		<g id="XMLID_627_">
			<path id="XMLID_718_" fill="#601823" d="M783.7,413c-26.9,0-48.8-21.9-48.8-48.8c0-26.9,21.9-48.8,48.8-48.8s48.8,21.9,48.8,48.8
				C832.5,391,810.6,413,783.7,413z M783.7,324.3c-22,0-39.8,17.9-39.8,39.8c0,22,17.9,39.8,39.8,39.8c22,0,39.8-17.9,39.8-39.8
				C823.5,342.2,805.7,324.3,783.7,324.3z"/>
		</g>
	</g>
	<path id="XMLID_791_" fill="#FFFFFF" d="M741.8,301.2h-7.7c-4.5,0-4.5,6.9,0,6.9h7.7C746.2,308.1,746.2,301.2,741.8,301.2z"/>
</g>
<g id="XMLID_801_">
	<g id="XMLID_450_">
		<g id="XMLID_448_">
			<polygon id="XMLID_363_" fill="#9BCC5E" points="977.3,243.2 968.3,223 946.4,230.3 946.4,252.2 			"/>
		</g>
		<g id="XMLID_446_">
			<path id="XMLID_768_" fill="#40B4E7" d="M988.4,242c0,0,23.1,44.4,23.8,52.9s-8.4,161.1-8.4,161.1h-61.7c0,0-14.5-36.6-13.8-72.6
				c0.6-36,14.5-54.9,9.6-63.3c-4.8-8.4-12.5-12.9-13.5-33.4c-1-20.6,3.2-25.1,3.2-25.1S955,244,988.4,242z"/>
		</g>
		<g id="XMLID_453_">
			<path id="XMLID_767_" fill="#636D7C" d="M924.5,286.7c0.1,1.7,0.2,3.4,0.4,4.9l75.7-25.1c0,0,0,0,0,0L988.4,242
				c-33.4,1.9-60.7,19.6-60.7,19.6S923.5,266.1,924.5,286.7z"/>
		</g>
		<g id="XMLID_444_">
			<path id="XMLID_572_" fill="#601823" d="M1003.8,460.5h-61.7c-1.8,0-3.5-1.1-4.2-2.8c-0.6-1.5-14.8-37.9-14.1-74.3
				c0.4-19.9,4.6-34.6,7.7-45.4c2.1-7.2,3.8-13.4,2.6-15.6c-1-1.8-2.2-3.4-3.5-5.1c-4.6-6.2-9.8-13.3-10.6-30.3
				c-1-20.8,3.1-27,4.4-28.3c0.3-0.3,0.5-0.5,0.9-0.7c1.2-0.7,28.7-18.3,62.9-20.3c1.8-0.1,3.4,0.8,4.2,2.4
				c3.9,7.6,23.6,45.7,24.3,54.6c0.6,8.5-7.4,146-8.3,161.7C1008.2,458.6,1006.2,460.5,1003.8,460.5z M945.3,451.5h54.3
				c3.6-61.2,8.6-150.4,8.1-156.2c-0.4-5-12.6-30.5-21.9-48.5c-27.4,2.4-50.2,15.4-54.8,18.2c-0.7,1.6-2.7,7.2-2,21.6
				c0.7,14.3,4.6,19.7,8.8,25.4c1.4,1.9,2.8,3.8,4.1,6c3.2,5.5,1.1,12.7-1.7,22.6c-3,10.3-7,24.3-7.3,43
				C932.3,412.5,942,442.3,945.3,451.5z"/>
		</g>
		<g id="XMLID_447_">
			<path id="XMLID_463_" fill="#601823" d="M946.4,256.7c-2.5,0-4.5-2-4.5-4.5v-21.9c0-1.9,1.2-3.7,3.1-4.3l21.8-7.3
				c2.2-0.7,4.6,0.3,5.5,2.4l9.1,20.3c1,2.3,0,4.9-2.3,5.9c-2.3,1-4.9,0-5.9-2.3l-7.4-16.6l-14.9,5v18.7
				C950.9,254.7,948.9,256.7,946.4,256.7z"/>
		</g>
		<g id="XMLID_449_">
			<path id="XMLID_461_" fill="#601823" d="M924.8,296.1c-1.9,0-3.6-1.2-4.3-3.1c-0.8-2.4,0.5-4.9,2.9-5.7l75.7-25.1
				c2.4-0.8,4.9,0.5,5.7,2.9c0.8,2.4-0.5,4.9-2.9,5.7l-75.7,25.1C925.8,296,925.3,296.1,924.8,296.1z"/>
		</g>
	</g>
	<path id="XMLID_792_" fill="#FFFFFF" d="M999.8,312.4c-1.4-6.1-2.8-12.2-4.2-18.4c-1-4.4-7.7-2.5-6.7,1.8
		c1.4,6.1,2.8,12.2,4.2,18.4C994.1,318.6,1000.8,316.8,999.8,312.4z"/>
</g>
<g id="XMLID_800_">
	<g id="XMLID_716_">
		<g id="XMLID_713_">
			<rect id="XMLID_775_" x="1155.3" y="254.5" fill="#636D7C" width="19" height="26.1"/>
		</g>
		<g id="XMLID_712_">
			<rect id="XMLID_774_" x="1140.6" y="232" fill="#E2E2E8" width="48.2" height="22.5"/>
		</g>
		<g id="XMLID_710_">
			<path id="XMLID_596_" fill="#601823" d="M1174.2,285.1h-19c-2.5,0-4.5-2-4.5-4.5v-26.1c0-2.5,2-4.5,4.5-4.5h19
				c2.5,0,4.5,2,4.5,4.5v26.1C1178.7,283,1176.7,285.1,1174.2,285.1z M1159.8,276.1h10V259h-10V276.1z"/>
		</g>
		<g id="XMLID_681_">
			<circle id="XMLID_773_" fill="#636D7C" cx="1164.8" cy="363.7" r="90.9"/>
		</g>
		<g id="XMLID_683_">
			<circle id="XMLID_772_" fill="#E2E2E8" cx="1164.8" cy="363.7" r="71"/>
		</g>
		<g id="XMLID_682_">
			<path id="XMLID_593_" fill="#601823" d="M1164.8,439.2c-41.6,0-75.5-33.9-75.5-75.5s33.9-75.5,75.5-75.5
				c41.6,0,75.5,33.9,75.5,75.5S1206.4,439.2,1164.8,439.2z M1164.8,297.2c-36.7,0-66.5,29.8-66.5,66.5s29.8,66.5,66.5,66.5
				c36.7,0,66.5-29.8,66.5-66.5S1201.4,297.2,1164.8,297.2z"/>
		</g>
		<g id="XMLID_680_">
			<path id="XMLID_581_" fill="#601823" d="M1164.8,459.1c-52.6,0-95.4-42.8-95.4-95.4c0-52.6,42.8-95.4,95.4-95.4
				c52.6,0,95.4,42.8,95.4,95.4C1260.1,416.3,1217.3,459.1,1164.8,459.1z M1164.8,277.3c-47.6,0-86.4,38.7-86.4,86.4
				s38.7,86.4,86.4,86.4c47.6,0,86.4-38.7,86.4-86.4S1212.4,277.3,1164.8,277.3z"/>
		</g>
		<g id="XMLID_711_">
			<path id="XMLID_578_" fill="#601823" d="M1188.8,259h-48.2c-2.5,0-4.5-2-4.5-4.5V232c0-2.5,2-4.5,4.5-4.5h48.2
				c2.5,0,4.5,2,4.5,4.5v22.5C1193.3,257,1191.3,259,1188.8,259z M1145.1,250h39.2v-13.5h-39.2V250z"/>
		</g>
		<g id="XMLID_715_">
			<polygon id="XMLID_771_" fill="#601823" points="1151.2,370.1 1203,327.7 1157.3,376.6 			"/>
		</g>
		<g id="XMLID_714_">
			<circle id="XMLID_770_" fill="#601823" cx="1164.5" cy="363.7" r="7.7"/>
		</g>
	</g>
	<path id="XMLID_793_" fill="#FFFFFF" d="M1146.9,311.7c-8.7,2.6-16.3,7.3-22.6,13.8c-3.1,3.2,1.8,8.1,4.9,4.9
		c5.5-5.7,12-9.7,19.5-12C1153,317.1,1151.1,310.4,1146.9,311.7z"/>
</g>
<g id="XMLID_799_">
	<g id="XMLID_415_">
		<g id="XMLID_433_">
			<path id="XMLID_769_" fill="#F4C887" d="M1203.8,656.1c-25.7,1.8-38.8,16.8-47.1,15.9c-8.3-0.9-22.6-3.7-36.1,2.1
				c-13.5,5.8-15,13.2-15,13.2l-0.2,0.3c0.7-3.6,0.9-7.8,0.2-12.8c-3.1-20.2-3.1-64.1,2.3-84.1c5.4-20,16.2-26,18.5-25.7
				c2.3,0.3,10.9,1.5,18.7,0c7.8-1.5,15.8,0.6,23.7,1.7c8,1.1,10.6-2.4,10.2-7c-0.4-4.5-5.7-8.2-9.2-8.7
				c-3.5-0.5-10.6-5.6-10.3-12.8c0.2-7.3,0.5-5.9,0.5-5.9c-2,17.9,2.8,19.4,13.8,20.3c0,0,8.1-7.2,8.6-10.9
				c0.4-3.7-14.5-24.7-21.4-27.9c-6.9-3.3-26.7,7.3-46.7,19.6c-20,12.2-23.2,20-28.5,35.9c-5.3,15.9-44.9,83.6-48.1,105.6
				c-3.3,22-14.3,46.9-8.6,58.3c5.7,11.4,37.1,12.6,67.2,20.4c30.1,7.7,57.6,1.2,71.1-4.9s28.1-5.7,28.1-5.7
				c32.8-12.6,47.7-75,47.7-75S1229.5,654.3,1203.8,656.1z"/>
		</g>
		<g id="XMLID_414_">
			<path id="XMLID_577_" fill="#601823" d="M1124.6,761.5c-9.4,0-19.4-1.1-29.5-3.7c-9.2-2.4-18.4-4.1-27.3-5.8
				c-21.1-4-37.8-7.1-42.8-17c-4.5-9-1-22.5,3.1-38.2c2-7.6,4-15.4,5.1-22.7c2.2-14.5,18-45.4,32-72.6c7.4-14.5,14.5-28.2,16.3-33.8
				c5.4-16.2,9.2-25.3,30.5-38.3c29.1-17.8,43.4-23.4,51-19.8c7.4,3.5,24.7,25.8,24,32.5c-0.5,4.7-6.5,10.6-10,13.8
				c-1.9,1.7-4.7,1.5-6.3-0.4c-1.7-1.9-1.5-4.7,0.4-6.3c3.1-2.7,6.2-6.2,6.9-7.8c-1.6-4.8-13.8-21.3-18.7-23.6
				c-1.8-0.9-9.7-0.7-42.4,19.3c-18.7,11.4-21.5,18.1-26.6,33.5c-2.1,6.3-8.6,19-16.9,35.1c-12.3,23.9-29.1,56.7-31.1,69.8
				c-1.2,7.9-3.2,15.9-5.3,23.7c-3.3,12.8-6.7,26-3.7,32c2.9,5.9,19.9,9.1,36.4,12.1c8.6,1.6,18.4,3.5,27.9,5.9
				c27.3,7,53.7,1.9,68.1-4.6c12.4-5.6,25.5-6.1,29.1-6.1c26.1-10.8,40.3-57.3,43.5-68.9c-4.3-3.2-15.6-10.1-33.9-8.8
				c-14.4,1-24.5,6.4-32.5,10.7c-6,3.2-10.7,5.7-15.4,5.2c-0.9-0.1-2-0.2-3.1-0.4c-7.9-1-19.9-2.5-30.7,2.2
				c-10.7,4.6-12.4,10-12.4,10.1l0-0.2l-8.8-1.8c0.2-1,2.4-9.8,17.6-16.4c13.1-5.6,26.5-4,35.4-2.8c1,0.1,2,0.3,2.9,0.4
				c1.9,0.2,5.9-1.9,10.2-4.2c8.3-4.5,19.8-10.6,36.1-11.7c27.4-2,42.1,12.4,42.7,13c1.1,1.1,1.6,2.7,1.2,4.2
				c-0.6,2.6-15.8,64.8-50.5,78.2c-0.6,0.2-1.1,0.3-1.7,0.3c-0.1,0-13.9-0.3-26.1,5.3C1158.3,757.6,1142.5,761.5,1124.6,761.5z"/>
		</g>
		<g id="XMLID_416_">
			<path id="XMLID_576_" fill="#601823" d="M1096.1,707.4c-1.5,0-2.9-0.7-3.8-2.1c-1.3-2.1-0.7-4.8,1.4-6.2c0.5-0.3,10-7,7.5-23.7
				c-3-19.8-3.3-64.6,2.4-85.9c5.8-21.7,18.3-29.7,23.4-29l0.2,0c6.7,0.9,12.5,0.9,17,0c6.8-1.3,13.4-0.2,19.9,0.8
				c1.8,0.3,3.5,0.6,5.3,0.8c3,0.4,4.4-0.1,4.8-0.4c0.2-0.2,0.4-0.9,0.3-1.7c-0.2-2-3.5-4.4-5.4-4.6c-5.2-0.8-14.5-7.3-14.1-17.4
				c0.1-2.4,0.1-4.6,0.2-6.6c0.1-2.5,2.1-4.4,4.7-4.3c2.5,0.1,4.4,2.2,4.3,4.7c-0.1,1.9-0.1,4.2-0.2,6.6c-0.1,4.6,4.9,8,6.5,8.3
				c5.1,0.8,12.4,5.6,13,12.8c0.3,3.6-0.8,6.8-3.1,9c-2.7,2.6-6.8,3.6-12.2,2.8c-1.9-0.2-3.7-0.6-5.6-0.9c-5.9-1-11.4-1.9-16.7-0.9
				c-5.4,1.1-12,1.1-19.5,0.1c-2.2,0.8-9.9,6.4-14.1,22.3c-4.9,18.5-5.3,61.4-2.2,82.3c3.5,22.8-10.9,32.2-11.5,32.6
				C1097.8,707.2,1097,707.4,1096.1,707.4z"/>
		</g>
	</g>
	<path id="XMLID_794_" fill="#FFFFFF" d="M1209.2,678.8c-11.4-4.8-24.1-1.4-31.3,8.8c-2.6,3.6,3.4,7.1,6,3.5
		c4.8-6.7,14.2-9.5,21.8-6.3C1209.8,686.5,1213.3,680.6,1209.2,678.8z"/>
</g>
<g id="XMLID_789_">
	<g id="XMLID_668_">
		<g id="XMLID_664_">
			<g id="XMLID_631_">
				<path id="XMLID_777_" fill="#40B4E7" d="M723.7,743.5h-28.1c-4.5,0-8.2-3.7-8.2-8.2V616.4c0-4.5,3.7-8.2,8.2-8.2h28.1
					c4.5,0,8.2,3.7,8.2,8.2v118.9C731.9,739.8,728.2,743.5,723.7,743.5z"/>
			</g>
			<g id="XMLID_630_">
				<path id="XMLID_643_" fill="#601823" d="M723.7,748h-28.1c-7,0-12.7-5.7-12.7-12.7V616.4c0-7,5.7-12.7,12.7-12.7h28.1
					c7,0,12.7,5.7,12.7,12.7v118.9C736.4,742.3,730.7,748,723.7,748z M695.6,612.7c-2.1,0-3.7,1.7-3.7,3.7v118.9
					c0,2.1,1.7,3.7,3.7,3.7h28.1c2.1,0,3.7-1.7,3.7-3.7V616.4c0-2.1-1.7-3.7-3.7-3.7H695.6z"/>
			</g>
			<g id="XMLID_665_">
				<rect id="XMLID_642_" x="687.4" y="627.7" fill="#601823" width="44.6" height="9"/>
			</g>
			<g id="XMLID_666_">
				<rect id="XMLID_640_" x="687.4" y="722.8" fill="#601823" width="44.6" height="9"/>
			</g>
		</g>
		<g id="XMLID_669_">
			<g id="XMLID_678_">
				<path id="XMLID_776_" fill="#40B4E7" d="M956.4,687.6L931,699.4c-4.1,1.9-9,0.1-11-4l-50.2-107.7c-1.9-4.1-0.1-9,4-11l25.4-11.9
					c4.1-1.9,9-0.1,11,4l50.2,107.7C962.3,680.7,960.5,685.7,956.4,687.6z"/>
			</g>
			<g id="XMLID_672_">
				<path id="XMLID_604_" fill="#601823" d="M927.5,704.7c-1.5,0-3-0.3-4.4-0.8c-3.2-1.2-5.8-3.5-7.2-6.6l-50.2-107.7
					c-1.4-3.1-1.6-6.5-0.4-9.7c1.2-3.2,3.5-5.8,6.6-7.2l25.4-11.9c3.1-1.4,6.5-1.6,9.7-0.4c3.2,1.2,5.8,3.5,7.2,6.6l50.2,107.7
					c3,6.4,0.2,14-6.2,16.9l-25.4,11.9C931.2,704.3,929.3,704.7,927.5,704.7z M902.7,568.6c-0.5,0-1.1,0.1-1.6,0.3l-25.4,11.9
					c-0.9,0.4-1.6,1.2-1.9,2.1c-0.3,0.9-0.3,2,0.1,2.9l50.2,107.7c0.4,0.9,1.2,1.6,2.1,1.9c0.9,0.3,2,0.3,2.9-0.1l25.4-11.9l0,0
					c0.9-0.4,1.6-1.2,1.9-2.1c0.3-0.9,0.3-2-0.1-2.9l-50.2-107.7c-0.4-0.9-1.2-1.6-2.1-1.9C903.5,568.7,903.1,568.6,902.7,568.6z"/>
			</g>
			<g id="XMLID_671_">
				
					<rect id="XMLID_603_" x="892.1" y="570.3" transform="matrix(0.4227 0.9063 -0.9063 0.4227 1054.6106 -470.4875)" fill="#601823" width="9" height="44.6"/>
			</g>
			<g id="XMLID_670_">
				
					<rect id="XMLID_602_" x="932.3" y="656.5" transform="matrix(0.4227 0.9063 -0.9063 0.4227 1155.9283 -457.1566)" fill="#601823" width="9" height="44.6"/>
			</g>
		</g>
		<g id="XMLID_679_">
			<path id="XMLID_599_" fill="#601823" d="M785.3,647.5c-3.3,0-6.7-1-10-2.9c-7.5-4.4-15.2-15.1-14.3-31.6
				c0.8-14.4,6.5-25.6,13-35.9c-3.6-4.3-7.5-8.2-11.7-11.6c-10.1-8.1-20.7-11.9-29.9-10.7c-4.7,0.6-8.4,2.8-11.4,6.7
				c-11.1,14.5-7.1,45.8-7,46.1l-8.9,1.2c-0.2-1.4-4.6-35.3,8.8-52.8c4.4-5.8,10.3-9.2,17.4-10.1c11.8-1.5,24.5,2.8,36.7,12.7
				c4,3.2,7.7,6.8,11.2,10.8c0,0,0-0.1,0.1-0.1c7.7-11.5,15-22.4,16.1-36.6c1.4-18.6,9-33,20.8-39.4c8.7-4.7,18.6-4.5,27.9,0.6
				c13.4,7.4,10.3,20.2,8.1,29.6c-2,8.4-2.9,13.8,0.7,17.5c4.8,5,11.8,8.2,18.5,11.2c9.4,4.3,18.3,8.3,20.3,17.3l-8.8,1.9
				c-1-4.6-7.6-7.6-15.2-11c-7.1-3.3-15.2-6.9-21.2-13.2c-7.3-7.5-5-17.3-3-25.8c2.6-11.1,3-15.9-3.7-19.6
				c-6.5-3.6-13.4-3.8-19.3-0.6c-8.9,4.8-14.9,16.8-16.1,32.1c-1.2,16.6-9.5,29-17.6,41c-0.6,0.8-1.1,1.7-1.7,2.5
				c9.6,13.4,16,29.2,17.3,43.9c1.4,15.7-4.9,22.1-8.7,24.5C791.2,646.7,788.3,647.5,785.3,647.5z M779.9,585
				c-5.2,8.6-9.2,17.5-9.8,28.6c-0.7,12.5,4.6,20.2,9.9,23.3c3.3,1.9,6.5,2.2,9,0.6c3.6-2.2,5.2-8.1,4.5-16.1
				C792.4,609.4,787.4,596.3,779.9,585z"/>
		</g>
	</g>
	<path id="XMLID_795_" fill="#FFFFFF" d="M916.6,615.7c-0.8-1.2-1.7-2.3-2.5-3.5c-0.5-0.8-1.2-1.3-2.1-1.6c-0.8-0.2-1.9-0.1-2.7,0.4
		c-1.5,0.9-2.4,3.2-1.2,4.8c0.8,1.2,1.7,2.3,2.5,3.5c0.5,0.8,1.2,1.3,2.1,1.6c0.8,0.2,1.9,0.1,2.7-0.4
		C916.8,619.6,917.7,617.3,916.6,615.7z"/>
	<path id="XMLID_796_" fill="#FFFFFF" d="M702.9,654.5c-0.2-4.4-7.2-4.5-6.9,0c0.3,6.8,0.7,13.7,1,20.5c0.2,4.4,7.2,4.5,6.9,0
		C703.6,668.2,703.3,661.3,702.9,654.5z"/>
</g>
<g id="XMLID_734_">
	<g id="XMLID_583_">
		<g id="XMLID_554_">
			<path id="XMLID_787_" fill="#636D7C" d="M284.9,712.1h-29.5c-3.5,0-6.3-2.8-6.3-6.3V535.4c0-3.5,2.8-6.3,6.3-6.3h29.5
				c3.5,0,6.3,2.8,6.3,6.3v170.4C291.1,709.3,288.3,712.1,284.9,712.1z"/>
		</g>
		<g id="XMLID_553_">
			<path id="XMLID_786_" fill="#636D7C" d="M242.9,686.5h-29.5c-3.5,0-6.3-2.8-6.3-6.3V560.9c0-3.5,2.8-6.3,6.3-6.3h29.5
				c3.5,0,6.3,2.8,6.3,6.3v119.3C249.1,683.7,246.3,686.5,242.9,686.5z"/>
		</g>
		<g id="XMLID_552_">
			<path id="XMLID_785_" fill="#636D7C" d="M200.8,671.1h-19.7c-3.5,0-6.3-2.8-6.3-6.3v-88.6c0-3.5,2.8-6.3,6.3-6.3h19.7
				c3.5,0,6.3,2.8,6.3,6.3v88.6C207.1,668.3,204.3,671.1,200.8,671.1z"/>
		</g>
		<g id="XMLID_544_">
			<path id="XMLID_759_" fill="#601823" d="M284.9,716.6h-29.5c-5.9,0-10.8-4.8-10.8-10.8V535.4c0-5.9,4.8-10.8,10.8-10.8h29.5
				c5.9,0,10.8,4.8,10.8,10.8v170.4C295.6,711.7,290.8,716.6,284.9,716.6z M255.4,533.6c-1,0-1.8,0.8-1.8,1.8v170.4
				c0,1,0.8,1.8,1.8,1.8h29.5c1,0,1.8-0.8,1.8-1.8V535.4c0-1-0.8-1.8-1.8-1.8H255.4z"/>
		</g>
		<g id="XMLID_549_">
			<path id="XMLID_756_" fill="#601823" d="M242.9,691h-29.5c-5.9,0-10.8-4.8-10.8-10.8V560.9c0-5.9,4.8-10.8,10.8-10.8h29.5
				c5.9,0,10.8,4.8,10.8,10.8v119.3C253.6,686.2,248.8,691,242.9,691z M213.3,559.2c-1,0-1.8,0.8-1.8,1.8v119.3c0,1,0.8,1.8,1.8,1.8
				h29.5c1,0,1.8-0.8,1.8-1.8V560.9c0-1-0.8-1.8-1.8-1.8H213.3z"/>
		</g>
		<g id="XMLID_550_">
			<path id="XMLID_753_" fill="#601823" d="M200.8,675.6h-19.7c-5.9,0-10.8-4.8-10.8-10.8v-88.6c0-5.9,4.8-10.8,10.8-10.8h19.7
				c5.9,0,10.8,4.8,10.8,10.8v88.6C211.6,670.8,206.8,675.6,200.8,675.6z M181.1,574.5c-1,0-1.8,0.8-1.8,1.8v88.6
				c0,1,0.8,1.8,1.8,1.8h19.7c1,0,1.8-0.8,1.8-1.8v-88.6c0-1-0.8-1.8-1.8-1.8H181.1z"/>
		</g>
		<g id="XMLID_555_">
			<rect id="XMLID_784_" x="157.4" y="593.2" fill="#40B4E7" width="17.5" height="54.8"/>
		</g>
		<g id="XMLID_551_">
			<path id="XMLID_750_" fill="#601823" d="M174.9,652.5h-17.5c-2.5,0-4.5-2-4.5-4.5v-54.8c0-2.5,2-4.5,4.5-4.5h17.5
				c2.5,0,4.5,2,4.5,4.5V648C179.3,650.5,177.3,652.5,174.9,652.5z M161.9,643.5h8.5v-45.8h-8.5V643.5z"/>
		</g>
		<g id="XMLID_591_">
			<path id="XMLID_783_" fill="#636D7C" d="M476.2,712.1h29.5c3.5,0,6.3-2.8,6.3-6.3V535.4c0-3.5-2.8-6.3-6.3-6.3h-29.5
				c-3.5,0-6.3,2.8-6.3,6.3v170.4C469.9,709.3,472.7,712.1,476.2,712.1z"/>
		</g>
		<g id="XMLID_590_">
			<path id="XMLID_782_" fill="#636D7C" d="M518.2,686.5h29.5c3.5,0,6.3-2.8,6.3-6.3V560.9c0-3.5-2.8-6.3-6.3-6.3h-29.5
				c-3.5,0-6.3,2.8-6.3,6.3v119.3C511.9,683.7,514.7,686.5,518.2,686.5z"/>
		</g>
		<g id="XMLID_589_">
			<path id="XMLID_781_" fill="#636D7C" d="M560.2,671.1h19.7c3.5,0,6.3-2.8,6.3-6.3v-88.6c0-3.5-2.8-6.3-6.3-6.3h-19.7
				c-3.5,0-6.3,2.8-6.3,6.3v88.6C554,668.3,556.8,671.1,560.2,671.1z"/>
		</g>
		<g id="XMLID_588_">
			<path id="XMLID_747_" fill="#601823" d="M505.7,716.6h-29.5c-5.9,0-10.8-4.8-10.8-10.8V535.4c0-5.9,4.8-10.8,10.8-10.8h29.5
				c5.9,0,10.8,4.8,10.8,10.8v170.4C516.4,711.7,511.6,716.6,505.7,716.6z M476.2,533.6c-1,0-1.8,0.8-1.8,1.8v170.4
				c0,1,0.8,1.8,1.8,1.8h29.5c1,0,1.8-0.8,1.8-1.8V535.4c0-1-0.8-1.8-1.8-1.8H476.2z"/>
		</g>
		<g id="XMLID_587_">
			<path id="XMLID_744_" fill="#601823" d="M547.7,691h-29.5c-5.9,0-10.8-4.8-10.8-10.8V560.9c0-5.9,4.8-10.8,10.8-10.8h29.5
				c5.9,0,10.8,4.8,10.8,10.8v119.3C558.5,686.2,553.6,691,547.7,691z M518.2,559.2c-1,0-1.8,0.8-1.8,1.8v119.3c0,1,0.8,1.8,1.8,1.8
				h29.5c1,0,1.8-0.8,1.8-1.8V560.9c0-1-0.8-1.8-1.8-1.8H518.2z"/>
		</g>
		<g id="XMLID_586_">
			<path id="XMLID_741_" fill="#601823" d="M579.9,675.6h-19.7c-5.9,0-10.8-4.8-10.8-10.8v-88.6c0-5.9,4.8-10.8,10.8-10.8h19.7
				c5.9,0,10.8,4.8,10.8,10.8v88.6C590.7,670.8,585.9,675.6,579.9,675.6z M560.2,574.5c-1,0-1.8,0.8-1.8,1.8v88.6
				c0,1,0.8,1.8,1.8,1.8h19.7c1,0,1.8-0.8,1.8-1.8v-88.6c0-1-0.8-1.8-1.8-1.8H560.2z"/>
		</g>
		<g id="XMLID_585_">
			<rect id="XMLID_780_" x="586.2" y="593.2" fill="#40B4E7" width="17.5" height="54.8"/>
		</g>
		<g id="XMLID_584_">
			<path id="XMLID_738_" fill="#601823" d="M603.7,652.5h-17.5c-2.5,0-4.5-2-4.5-4.5v-54.8c0-2.5,2-4.5,4.5-4.5h17.5
				c2.5,0,4.5,2,4.5,4.5V648C608.2,650.5,606.2,652.5,603.7,652.5z M590.7,643.5h8.5v-45.8h-8.5V643.5z"/>
		</g>
		<g id="XMLID_556_">
			<rect id="XMLID_779_" x="291.1" y="602.9" fill="#E2E2E8" width="178.8" height="32.1"/>
		</g>
		<g id="XMLID_545_">
			<path id="XMLID_735_" fill="#601823" d="M469.9,639.6H291.1c-2.5,0-4.5-2-4.5-4.5v-32.1c0-2.5,2-4.5,4.5-4.5h178.8
				c2.5,0,4.5,2,4.5,4.5v32.1C474.4,637.5,472.4,639.6,469.9,639.6z M295.6,630.6h169.8v-23.1H295.6V630.6z"/>
		</g>
	</g>
	<path id="XMLID_797_" fill="#FFFFFF" d="M500.5,549c-0.1-4.5-7.1-4.5-6.9,0c0.2,5.5,0.3,11,0.5,16.5c0.1,4.5,7.1,4.5,6.9,0
		C500.8,560,500.7,554.5,500.5,549z"/>
	<path id="XMLID_798_" fill="#FFFFFF" d="M269.5,568.1c-1-4.4-7.7-2.5-6.7,1.8c1,4.3,1.3,8.7,0.9,13.1c-0.4,4.5,6.6,4.4,6.9,0
		C271,578,270.6,573,269.5,568.1z"/>
</g>
</svg>
